<?xml version="1.0" standalone="no"?>
<!DOCTYPE svg PUBLIC "-//W3C//DTD SVG 20010904//EN"
 "http://www.w3.org/TR/2001/REC-SVG-20010904/DTD/svg10.dtd">
<svg version="1.0" xmlns="http://www.w3.org/2000/svg"
 width="512.000000pt" height="512.000000pt" viewBox="0 0 512.000000 512.000000"
 preserveAspectRatio="xMidYMid meet">

<g transform="translate(0.000000,512.000000) scale(0.100000,-0.100000)"
fill="#000000" stroke="none">
<path d="M1390 4470 c-624 -356 -1145 -660 -1157 -675 l-23 -26 0 -1209 0
-1210 27 -29 c40 -43 2268 -1312 2313 -1318 31 -4 151 62 1177 649 629 360
1150 663 1158 675 14 19 15 164 15 1233 0 1057 -2 1215 -15 1233 -8 12 -529
315 -1158 674 -824 471 -1150 653 -1172 653 -21 -1 -368 -194 -1165 -650z
m1653 -355 l474 -690 -955 -3 c-525 -1 -957 0 -959 2 -3 2 211 317 474 700
263 382 481 692 485 688 4 -4 220 -317 481 -697z m-1273 -57 c-232 -337 -423
-614 -425 -616 -3 -4 -758 297 -767 306 -7 7 1603 933 1610 927 2 -2 -186
-279 -418 -617z m1968 157 c441 -252 802 -461 802 -464 0 -7 -770 -315 -774
-310 -10 14 -834 1217 -841 1228 -5 8 -4 12 1 9 5 -3 370 -211 812 -463z
m-2881 -816 c200 -79 363 -148 363 -152 0 -9 -768 -1396 -782 -1411 -4 -6 -8
382 -8 862 l0 872 33 -13 c17 -7 195 -78 394 -158z m3833 -711 l0 -883 -400
720 c-305 549 -397 722 -387 729 14 9 767 314 780 315 4 1 7 -396 7 -881z
m-1150 507 c0 -3 -221 -408 -492 -900 l-491 -894 -449 817 c-247 449 -470 854
-495 900 l-45 82 986 0 c542 0 986 -2 986 -5z m-1665 -1012 c266 -483 482
-878 481 -879 -3 -2 -1850 176 -1853 179 -2 3 759 1382 854 1545 13 24 27 41
30 39 2 -3 222 -401 488 -884z m2301 92 c243 -437 437 -795 430 -795 -6 0
-423 -40 -926 -89 -503 -49 -917 -87 -918 -86 -5 4 961 1764 968 1764 3 0 204
-357 446 -794z m-2514 -1125 c410 -39 755 -70 767 -70 21 0 21 0 21 -391 0
-325 -2 -390 -14 -386 -17 7 -1551 882 -1591 909 l-30 19 50 -5 c28 -4 386
-38 797 -76z m2623 72 c-9 -8 -1531 -878 -1593 -911 l-22 -12 2 388 3 388 790
76 c910 88 832 81 820 71z"/>
</g>
</svg>
